<svg width="30" height="28" viewBox="0 0 30 28" fill="none" xmlns="http://www.w3.org/2000/svg">
<path d="M22.0312 0C20.4033 0 18.9108 0.54538 17.5953 1.62103C16.3341 2.65226 15.4944 3.96572 15 4.92081C14.5056 3.96565 13.6659 2.65226 12.4047 1.62103C11.0892 0.54538 9.59666 0 7.96875 0C3.42586 0 0 3.92849 0 9.13804C0 14.7662 4.274 18.6168 10.7443 24.4462C11.843 25.4362 13.0884 26.5583 14.3829 27.7551C14.5535 27.913 14.7727 28 15 28C15.2273 28 15.4465 27.913 15.6171 27.7551C16.9117 26.5582 18.157 25.4361 19.2564 24.4456C25.726 18.6168 30 14.7662 30 9.13804C30 3.92849 26.5741 0 22.0312 0Z" fill="#FFAC12"/>
</svg>
