<svg width="30" height="28" viewBox="0 0 30 28" fill="none" xmlns="http://www.w3.org/2000/svg">
<path d="M14.5559 5.15064L15 6.00857L15.444 5.15065C15.9213 4.22853 16.723 2.98009 17.9118 2.00811L17.5953 1.62103L17.9118 2.00811C19.1423 1.00202 20.5241 0.5 22.0312 0.5C26.2359 0.5 29.5 4.13814 29.5 9.13804C29.5 11.8069 28.4929 14.0709 26.6608 16.4081C24.8161 18.7614 22.1676 21.1498 18.9217 24.0741L19.2277 24.4138L18.9217 24.0741C17.8226 25.0645 16.5749 26.1886 15.2777 27.388L15.2775 27.3882C15.197 27.4627 15.0983 27.5 15 27.5C14.9017 27.5 14.8031 27.4627 14.7226 27.3882L14.7223 27.3879C13.4258 26.1893 12.1787 25.0656 11.0806 24.0762L11.079 24.0748L10.7601 24.4287L11.079 24.0748C7.8328 21.1501 5.18407 18.7616 3.3393 16.4082C1.50713 14.0709 0.5 11.8069 0.5 9.13804C0.5 4.13814 3.7641 0.5 7.96875 0.5C9.47594 0.5 10.8577 1.00202 12.0882 2.00811L12.4047 1.62103L12.0882 2.00811C13.277 2.9801 14.0787 4.22848 14.5559 5.15064Z" fill="white" stroke="black"/>
</svg>
